<mxfile host="app.diagrams.net" agent="Mozilla/5.0 (Windows NT 10.0; Win64; x64) AppleWebKit/537.36 (KHTML, like Gecko) Chrome/127.0.0.0 Safari/537.36 Edg/127.0.0.0" version="24.7.6" pages="6">
  <diagram name="Main Interface" id="EbF2326kZMwRx8eMUAS_">
    <mxGraphModel dx="2570" dy="1687" grid="1" gridSize="6" guides="1" tooltips="1" connect="1" arrows="1" fold="1" page="1" pageScale="1" pageWidth="2336" pageHeight="1654" background="none" math="0" shadow="0">
      <root>
        <mxCell id="0" />
        <mxCell id="1" parent="0" />
        <mxCell id="XUUatiIXPWmPjCgq8tIr-1" value="" style="rounded=0;whiteSpace=wrap;html=1;fillColor=#FFE600;strokeColor=#d6b656;" vertex="1" parent="1">
          <mxGeometry x="36" y="24" width="2268" height="1590" as="geometry" />
        </mxCell>
        <UserObject label="&lt;font style=&quot;font-size: 52px;&quot;&gt;&lt;b&gt;&lt;font color=&quot;#0000ff&quot;&gt;Categories&lt;/font&gt;&amp;nbsp;&lt;/b&gt;&lt;/font&gt;" link="data:page/id,dKbsvRLaDiI6NOuDRI-P" id="xzuJ9RJnWOzTokdqVB3_-2">
          <mxCell style="text;html=1;align=center;verticalAlign=middle;whiteSpace=wrap;rounded=0;" vertex="1" parent="1">
            <mxGeometry x="93" y="74" width="330" height="150" as="geometry" />
          </mxCell>
        </UserObject>
        <mxCell id="xzuJ9RJnWOzTokdqVB3_-3" value="&lt;font style=&quot;font-size: 63px;&quot;&gt;&lt;b&gt;Display the most Trending products randomly&lt;/b&gt;&lt;/font&gt;" style="text;html=1;align=center;verticalAlign=middle;whiteSpace=wrap;rounded=0;" vertex="1" parent="1">
          <mxGeometry x="696" y="612" width="840" height="252" as="geometry" />
        </mxCell>
        <UserObject label="&lt;span style=&quot;font-size: 52px;&quot;&gt;&lt;b&gt;&lt;font color=&quot;#3333ff&quot;&gt;Login&lt;span style=&quot;white-space: pre;&quot;&gt;&#x9;&lt;/span&gt;Create Account&lt;/font&gt;&lt;/b&gt;&lt;/span&gt;" link="data:page/id,59rd_4bV0ZtgQvLaxmSP" id="xzuJ9RJnWOzTokdqVB3_-4">
          <mxCell style="text;html=1;align=center;verticalAlign=middle;whiteSpace=wrap;rounded=0;" vertex="1" parent="1">
            <mxGeometry x="1542" y="60" width="726" height="172" as="geometry" />
          </mxCell>
        </UserObject>
        <UserObject label="&lt;font color=&quot;#666666&quot; style=&quot;font-size: 42px;&quot;&gt;&amp;nbsp; &amp;nbsp;search&lt;/font&gt;" link="data:page/id,WPZn62eoKK8UrivS1Dtk" id="6lLXzWwEAh-M-BNG1uh3-1">
          <mxCell style="rounded=1;whiteSpace=wrap;html=1;align=left;fillColor=#dae8fc;strokeColor=#6c8ebf;" vertex="1" parent="1">
            <mxGeometry x="756" y="102" width="582" height="90" as="geometry" />
          </mxCell>
        </UserObject>
      </root>
    </mxGraphModel>
  </diagram>
  <diagram id="dKbsvRLaDiI6NOuDRI-P" name="Categories dialog">
    <mxGraphModel dx="1101" dy="723" grid="1" gridSize="10" guides="1" tooltips="1" connect="1" arrows="1" fold="1" page="1" pageScale="1" pageWidth="827" pageHeight="583" background="#D5E8D4" math="0" shadow="0">
      <root>
        <mxCell id="0" />
        <mxCell id="1" parent="0" />
        <UserObject label="&lt;h1 style=&quot;margin-top: 0px;&quot;&gt;&lt;u&gt;Categories to search in:&lt;/u&gt;&lt;/h1&gt;&lt;div&gt;&lt;u&gt;&lt;br&gt;&lt;/u&gt;&lt;/div&gt;&lt;p style=&quot;font-size: 18px;&quot;&gt;&lt;font color=&quot;#0000ff&quot; style=&quot;font-size: 18px;&quot;&gt;&lt;b&gt;Fresh &amp;amp; Frozen Food&lt;/b&gt;&lt;/font&gt;&lt;/p&gt;&lt;p style=&quot;font-size: 18px;&quot;&gt;&lt;font color=&quot;#0000ff&quot; style=&quot;font-size: 18px;&quot;&gt;&lt;b&gt;Fruits &amp;amp; Vegetables&lt;/b&gt;&lt;/font&gt;&lt;/p&gt;&lt;p style=&quot;font-size: 18px;&quot;&gt;&lt;font color=&quot;#0000ff&quot; style=&quot;font-size: 18px;&quot;&gt;&lt;b&gt;Bakery&lt;/b&gt;&lt;/font&gt;&lt;/p&gt;&lt;p style=&quot;font-size: 18px;&quot;&gt;&lt;font color=&quot;#0000ff&quot; style=&quot;font-size: 18px;&quot;&gt;&lt;b&gt;Pet Supplies&lt;/b&gt;&lt;/font&gt;&lt;/p&gt;&lt;p style=&quot;font-size: 18px;&quot;&gt;&lt;font color=&quot;#0000ff&quot; style=&quot;font-size: 18px;&quot;&gt;&lt;b&gt;Electronics &amp;amp; Appliances (Smartphones, Laptops, Wearables, ...........)&lt;/b&gt;&lt;/font&gt;&lt;/p&gt;&lt;p style=&quot;font-size: 18px;&quot;&gt;&lt;font color=&quot;#0000ff&quot; style=&quot;font-size: 18px;&quot;&gt;&lt;b&gt;Toys&lt;br&gt;Home Supplies&lt;/b&gt;&lt;/font&gt;&lt;/p&gt;&lt;p style=&quot;font-size: 18px;&quot;&gt;&lt;font color=&quot;#0000ff&quot; style=&quot;font-size: 18px;&quot;&gt;&lt;b&gt;Health &amp;amp; Self Care&lt;/b&gt;&lt;/font&gt;&lt;/p&gt;&lt;p style=&quot;font-size: 18px;&quot;&gt;&lt;font color=&quot;#0000ff&quot; style=&quot;font-size: 18px;&quot;&gt;&lt;b&gt;Accessories&lt;/b&gt;&lt;/font&gt;&lt;/p&gt;&lt;p style=&quot;font-size: 18px;&quot;&gt;&lt;font color=&quot;#0000ff&quot; style=&quot;font-size: 18px;&quot;&gt;&lt;b&gt;Others&lt;/b&gt;&lt;/font&gt;&lt;/p&gt;" link="data:page/id,WPZn62eoKK8UrivS1Dtk" id="-Ppr0EqFzanmULK4oDfG-3">
          <mxCell style="text;html=1;whiteSpace=wrap;overflow=hidden;rounded=0;align=center;" vertex="1" parent="1">
            <mxGeometry x="90" y="30" width="650" height="460" as="geometry" />
          </mxCell>
        </UserObject>
        <mxCell id="_VyvChreIAl1zk_a2Ed4-1" value="&lt;b&gt;&lt;font color=&quot;#994c00&quot; style=&quot;font-size: 13px;&quot;&gt;Note: for each Category , display the items in this category ordered by the most selling products (or ordered by user)&lt;/font&gt;&lt;/b&gt;" style="text;html=1;align=center;verticalAlign=middle;whiteSpace=wrap;rounded=0;" vertex="1" parent="1">
          <mxGeometry x="20" y="500" width="760" height="60" as="geometry" />
        </mxCell>
      </root>
    </mxGraphModel>
  </diagram>
  <diagram id="59rd_4bV0ZtgQvLaxmSP" name="Login dialog">
    <mxGraphModel dx="532" dy="349" grid="1" gridSize="6" guides="1" tooltips="1" connect="1" arrows="1" fold="1" page="1" pageScale="1" pageWidth="400" pageHeight="420" background="#D4E1F5" math="0" shadow="0">
      <root>
        <mxCell id="0" />
        <mxCell id="1" parent="0" />
        <mxCell id="x1iLHMzqx-KYeWFBfRGT-2" value="" style="rounded=1;whiteSpace=wrap;html=1;" vertex="1" parent="1">
          <mxGeometry x="110" y="168" width="180" height="24" as="geometry" />
        </mxCell>
        <mxCell id="x1iLHMzqx-KYeWFBfRGT-3" value="" style="rounded=1;whiteSpace=wrap;html=1;" vertex="1" parent="1">
          <mxGeometry x="110" y="210" width="180" height="24" as="geometry" />
        </mxCell>
        <mxCell id="rf-HVW4D9Cupzn0DavtZ-1" value="&lt;font color=&quot;#808080&quot; style=&quot;font-size: 11px;&quot;&gt;Enter Username&amp;nbsp;&lt;/font&gt;" style="text;html=1;align=center;verticalAlign=middle;whiteSpace=wrap;rounded=0;" vertex="1" parent="1">
          <mxGeometry x="126" y="168" width="144" height="24" as="geometry" />
        </mxCell>
        <mxCell id="rf-HVW4D9Cupzn0DavtZ-2" value="&lt;font color=&quot;#666666&quot; style=&quot;font-size: 11px;&quot;&gt;Enter Password&amp;nbsp;&lt;/font&gt;" style="text;html=1;align=center;verticalAlign=middle;whiteSpace=wrap;rounded=0;" vertex="1" parent="1">
          <mxGeometry x="128" y="210" width="144" height="24" as="geometry" />
        </mxCell>
        <mxCell id="rf-HVW4D9Cupzn0DavtZ-3" value="&lt;b&gt;Login or create account page&lt;/b&gt;" style="text;html=1;align=center;verticalAlign=middle;whiteSpace=wrap;rounded=0;" vertex="1" parent="1">
          <mxGeometry x="128" y="60" width="150" height="48" as="geometry" />
        </mxCell>
        <UserObject label="&lt;span style=&quot;color: rgb(0, 0, 255);&quot;&gt;Submit&lt;/span&gt;" id="rf-HVW4D9Cupzn0DavtZ-4">
          <mxCell style="rounded=1;whiteSpace=wrap;html=1;" vertex="1" parent="1">
            <mxGeometry x="173" y="282" width="54" height="24" as="geometry" />
          </mxCell>
        </UserObject>
      </root>
    </mxGraphModel>
  </diagram>
  <diagram id="WPZn62eoKK8UrivS1Dtk" name="Items Display">
    <mxGraphModel dx="1542" dy="1012" grid="1" gridSize="6" guides="1" tooltips="1" connect="1" arrows="1" fold="1" page="1" pageScale="1" pageWidth="1169" pageHeight="827" background="#FFF4C3" math="0" shadow="0">
      <root>
        <mxCell id="0" />
        <mxCell id="1" parent="0" />
        <mxCell id="tSSSgCkePqcqIxtd7b1e-1" value="Filter by&amp;nbsp;" style="rounded=0;whiteSpace=wrap;html=1;" vertex="1" parent="1">
          <mxGeometry x="24" y="12" width="1128" height="84" as="geometry" />
        </mxCell>
      </root>
    </mxGraphModel>
  </diagram>
  <diagram id="pFgOeBAD-N0XeRKWl_8A" name="Specific Item Display">
    <mxGraphModel dx="907" dy="595" grid="1" gridSize="6" guides="1" tooltips="1" connect="1" arrows="1" fold="1" page="1" pageScale="1" pageWidth="827" pageHeight="583" background="#D4E1F5" math="0" shadow="0">
      <root>
        <mxCell id="0" />
        <mxCell id="1" parent="0" />
        <mxCell id="TpgmQ5fFr3FhhFVrTgOk-1" value="&lt;font color=&quot;#ffffff&quot; style=&quot;font-size: 42px;&quot;&gt;&lt;b&gt;Image&lt;/b&gt;&lt;/font&gt;" style="rounded=0;whiteSpace=wrap;html=1;fillColor=#d80073;strokeColor=#A50040;fontColor=#ffffff;" vertex="1" parent="1">
          <mxGeometry x="41" y="20" width="228" height="252" as="geometry" />
        </mxCell>
        <mxCell id="TpgmQ5fFr3FhhFVrTgOk-2" value="&lt;font style=&quot;font-size: 35px;&quot;&gt;&lt;b style=&quot;&quot;&gt;Name&lt;/b&gt;&lt;/font&gt;&lt;div style=&quot;font-size: 35px;&quot;&gt;&lt;font style=&quot;font-size: 35px;&quot;&gt;&lt;b style=&quot;&quot;&gt;Price&lt;span style=&quot;white-space: pre;&quot;&gt;&#x9;&lt;span style=&quot;white-space: pre;&quot;&gt;&#x9;&lt;/span&gt;&lt;/span&gt;EGP&lt;/b&gt;&lt;/font&gt;&lt;/div&gt;&lt;div style=&quot;font-size: 35px;&quot;&gt;&lt;b&gt;&lt;font style=&quot;font-size: 35px;&quot;&gt;Company&lt;/font&gt;&lt;/b&gt;&lt;/div&gt;&lt;div style=&quot;font-size: 35px;&quot;&gt;&lt;b&gt;&lt;font style=&quot;font-size: 35px;&quot;&gt;Discount&lt;/font&gt;&lt;/b&gt;&lt;/div&gt;&lt;div style=&quot;font-size: 35px;&quot;&gt;&lt;b style=&quot;&quot;&gt;&lt;font style=&quot;font-size: 35px;&quot;&gt;Available remaining&amp;nbsp;&lt;/font&gt;&lt;/b&gt;&lt;/div&gt;" style="text;html=1;align=left;verticalAlign=middle;whiteSpace=wrap;rounded=0;" vertex="1" parent="1">
          <mxGeometry x="288" y="20" width="474" height="244" as="geometry" />
        </mxCell>
        <mxCell id="TpgmQ5fFr3FhhFVrTgOk-3" value="&lt;font size=&quot;1&quot; style=&quot;&quot;&gt;&lt;b style=&quot;font-size: 40px;&quot;&gt;Description&lt;/b&gt;&lt;/font&gt;" style="rounded=0;whiteSpace=wrap;html=1;fillColor=#dae8fc;strokeColor=#6c8ebf;" vertex="1" parent="1">
          <mxGeometry x="42" y="360" width="738" height="204" as="geometry" />
        </mxCell>
        <mxCell id="TpgmQ5fFr3FhhFVrTgOk-4" value="&lt;font size=&quot;1&quot; style=&quot;&quot;&gt;&lt;b style=&quot;font-size: 30px;&quot;&gt;Rate&lt;/b&gt;&lt;/font&gt;" style="text;html=1;align=center;verticalAlign=middle;whiteSpace=wrap;rounded=0;" vertex="1" parent="1">
          <mxGeometry x="86" y="272" width="142" height="58" as="geometry" />
        </mxCell>
      </root>
    </mxGraphModel>
  </diagram>
  <diagram id="BgCEZD6uOb7x0Q_nauwx" name="User Profile">
    <mxGraphModel dx="907" dy="595" grid="1" gridSize="6" guides="1" tooltips="1" connect="1" arrows="1" fold="1" page="1" pageScale="1" pageWidth="583" pageHeight="827" background="#FFF4C3" math="0" shadow="0">
      <root>
        <mxCell id="0" />
        <mxCell id="1" parent="0" />
        <mxCell id="rttZavr03ZK6qaGmpAeC-1" value="&lt;font style=&quot;font-size: 30px;&quot;&gt;Name (Username)&lt;/font&gt;" style="text;html=1;align=center;verticalAlign=middle;whiteSpace=wrap;rounded=0;" vertex="1" parent="1">
          <mxGeometry y="24" width="282" height="54" as="geometry" />
        </mxCell>
      </root>
    </mxGraphModel>
  </diagram>
</mxfile>
